<svg xmlns="http://www.w3.org/2000/svg" version="1.1" xmlns:xlink="http://www.w3.org/1999/xlink" xmlns:svgjs="http://svgjs.dev/svgjs" viewBox="0 0 12.855994366804374 12.855994366804374"><g transform="matrix(1,0,0,1,3.516485136625943,3.482771906106822)"><rect width="12.855994366804374" height="12.855994366804374" x="-3.516485136625943" y="-3.482771906106822" fill="#ffffff"></rect><g><path d=" M -1.5587580382903714 1.782758610217324 Q -1.5074176248251407 1.7980929581401783 -1.458404489697824 1.809149859887115 Q -1.4093913545705075 1.8202067616340512 -1.383935849598254 1.8247456729140374 Q -1.3569829619805742 1.829551578975199 -1.3320091535498584 1.8324596102191706 Q -1.307035345119143 1.8353676414631421 -1.2902971412382738 1.8368072014106476 L -1.2964380212053137 1.871247002255461 Q -1.386385565972541 1.8644786060386576 -1.4409822098326932 1.8717384951877911 Q -1.4955788536928454 1.8789983843369247 -1.524366263752687 1.9148076001136844 Q -1.5531536738125282 1.9506168158904442 -1.5673043972148375 2.0299780960980573 L -1.5894649640524166 2.154260855668471 Q -1.5985427866123885 2.2051718656129777 -1.5949795907331155 2.2328445332044105 Q -1.5914163948538427 2.260517200795843 -1.56681416724593 2.2741739053389773 Q -1.5422119396380172 2.287830609882111 -1.4868087817572304 2.2977094167856102 L -0.744106989625603 2.4301388282487317 Q -0.6902012143902428 2.439750640371055 -0.661646358085509 2.4355722505596566 Q -0.633091501780775 2.4313938607482584 -0.6201834885603545 2.406658135749758 Q -0.607275475339934 2.381922410751257 -0.598197652779962 2.33101140080675 L -0.5787070337541396 2.2217024676906036 Q -0.5618863625400738 2.1273673610287234 -0.5786645371241186 2.074163513772371 Q -0.5954427117081633 2.020959666516018 -0.6492205192300432 1.9889683190820686 Q -0.702998326751923 1.9569769716481196 -0.7999566178818536 1.9288736375725402 L -0.7938157379148136 1.894433836727727 Q -0.7541873908318206 1.9061348437557493 -0.6868051717876205 1.9181496089086534 Q -0.6583549015245138 1.9232225097509907 -0.6047973254401036 1.9304547505145864 Q -0.5512397493556934 1.937686991278182 -0.49327122970477744 1.9418432623811497 Q -0.5098827288355888 2.0176757877355587 -0.5277190861535437 2.1133747796522773 Q -0.5455554434714984 2.2090737715689963 -0.5589051825302809 2.28394290384033 Q -0.5647790677161452 2.3168853220397168 -0.5739903876667051 2.3685450233069365 Q -0.5832017076172649 2.4202047245741567 -0.5931328075415775 2.4802335277818113 Q -0.6030639074658901 2.540262330989466 -0.6132620021713784 2.601788516842547 Q -0.6234600968768667 2.663314702695628 -0.631841521134939 2.718984855357591 L -0.6617891740434723 2.7136449597340775 Q -0.6557061167743535 2.6621999602272197 -0.6600180039763397 2.6343937952451992 Q -0.6643298911783259 2.6065876302631783 -0.689680810108952 2.592797428329457 Q -0.7150317290395782 2.5790072263957353 -0.7689375042749382 2.5693954142734117 L -1.5116392964065657 2.43696600281029 Q -1.5670424542873524 2.4270871959067915 -1.594848619269373 2.4313990831087775 Q -1.6226547842513934 2.4357109703107636 -1.6370601801172406 2.4601797005280885 Q -1.651465575983088 2.4846484307454135 -1.6620407811884865 2.5352924459087447 L -1.69198843409702 2.5299525502852314 Q -1.6806122445480944 2.4748163871856206 -1.6689167671971794 2.413557196113715 Q -1.6572212898462646 2.3522980050418094 -1.6457928072765253 2.2925361966153304 Q -1.634364324706786 2.2327743881888518 -1.6251530047562261 2.1811146869216316 Q -1.6159416848056662 2.1294549856544114 -1.6100677996198023 2.096512567455025 Q -1.5977860396857224 2.027632965765398 -1.58291553630966 1.93990258361735 Q -1.568045032933598 1.852172201469302 -1.5587580382903714 1.782758610217324 M -1.0925762759166624 2.131620640392783 Q -1.0925762759166624 2.131620640392783 -1.077602449462396 2.1342905882045393 Q -1.0626286230081292 2.1369605360162955 -1.0626286230081292 2.1369605360162955 L -1.1114886679632727 2.4109815601293763 Q -1.1114886679632727 2.4109815601293763 -1.1264624944175394 2.4083116123176196 Q -1.1414363208718061 2.405641664505863 -1.1414363208718061 2.405641664505863 L -1.0925762759166624 2.131620640392783 M -1.2824879364588888 2.052953232560224 Q -1.1982051047942714 2.0741614656689427 -1.1531501280408836 2.0814226177814987 Q -1.1080951512874957 2.088683769894055 -1.070660585151829 2.095358639423446 Q -1.0332260190161622 2.1020335089528372 -0.9880375448721865 2.10854596974268 Q -0.9428490707282109 2.115058430532523 -0.8564302808141881 2.124287602477828 L -0.8625711607812281 2.1587274033226413 Q -0.9115553845595841 2.1561731009067273 -0.9586940265415635 2.1562653646307166 Q -1.005832668523543 2.156357628354706 -1.0399710335611125 2.178852809062174 Q -1.074109398598682 2.2013479897696424 -1.0858571689704106 2.267232826168416 L -1.1158048218789438 2.261892930544903 Q -1.1069939941001474 2.212479303245823 -1.1225362511428336 2.182670677404985 Q -1.1380785081855198 2.152862051564147 -1.1673875854900748 2.135276099996045 Q -1.1966966627946296 2.1176901484279433 -1.2295867879732025 2.107190617915211 Q -1.2624769131517757 2.096691087402479 -1.2886288164259287 2.0873930334050375 L -1.2824879364588888 2.052953232560224 M -1.2161203913844782 0.9026336436806158 Q -1.091913965064525 0.6603575063046332 -0.9104074098411375 0.6047063957120373 Q -0.7289008546177498 0.5490552851194415 -0.5028666929317772 0.6649350236414091 Q -0.35533541374751965 0.7405691044731124 -0.27451568147073435 0.8546448563365509 Q -0.19369594919394906 0.9687206081999891 -0.188993682992815 1.1095790233500031 Q -0.18429141679168093 1.250437438500017 -0.2640888415223772 1.4060897055292796 Q -0.2744972012698593 1.426392175141792 -0.29319796548983035 1.4595357338461474 Q -0.31189872970980137 1.4926792925505028 -0.33096358091743694 1.5282000435410255 Q -0.3500284321250724 1.563720794531548 -0.36529402642137954 1.5934977499632332 Q -0.38958019916550446 1.6408701790590958 -0.4124957322727135 1.6872360555057069 Q -0.4354112653799226 1.733601931952318 -0.44727597307806255 1.7634131707094998 L -0.47434593256141255 1.749535357712857 Q -0.45346064641545475 1.7021286452914977 -0.4494385478883973 1.6742790868445736 Q -0.44541644936133984 1.6464295283976493 -0.46561606899736196 1.6258185088556658 Q -0.48581568863338415 1.6052074893136823 -0.5345416157034142 1.580227425919725 L -1.2058766108904946 1.236057663602983 Q -1.255956035934692 1.2103837095591938 -1.283805594381616 1.2063616110321362 Q -1.3116551528285403 1.2023395125050789 -1.3325959760326915 1.221515437829101 Q -1.3535367992368428 1.2406913631531236 -1.378482579305303 1.2860164036249864 L -1.405552538788653 1.2721385906283436 Q -1.3896273371680106 1.2444090238206582 -1.3640048081124667 1.1994309286737113 Q -1.3383822790569224 1.1544528335267645 -1.3168373855866293 1.109093509729405 Q -1.2939047108166717 1.0610271899837103 -1.264727020198225 1.000779388470508 Q -1.2355493295797784 0.9405315869573059 -1.2161203913844782 0.9026336436806158 M -1.209104694095267 0.948961124731782 Q -1.2410236639875456 1.011222031543487 -1.227728667524348 1.0419671442289784 Q -1.2144336710611503 1.0727122569144698 -1.1440517764044404 1.1087945707057412 L -0.46730278932069 1.455739895621812 Q -0.39692089466397995 1.4918222094130833 -0.36385001468056644 1.483992629834801 Q -0.33077913469715287 1.4761630502565186 -0.2988601648048743 1.4139021434448136 Q -0.2232260839731709 1.2663708642605558 -0.2350558149628587 1.1577523051421363 Q -0.2468855459525465 1.0491337460237167 -0.33309801639330516 0.9639141052564538 Q -0.41931048683406386 0.8786944644891912 -0.5668417660183214 0.8030603836574877 Q -0.7184335391250816 0.7253446308762879 -0.8363037424469445 0.7102113644290642 Q -0.9541739457688075 0.6950780979818405 -1.0455570061407657 0.7516377167001012 Q -1.1369400665127243 0.8081973354183618 -1.209104694095267 0.948961124731782 M -0.002131046701367656 -0.6525555971840062 L 0.019350300937751697 -0.6310166068732395 Q -0.016191915208595864 -0.5934213663711985 -0.02537192529291321 -0.5649326415471239 Q -0.034551935377230336 -0.5364439167230495 -0.019532284831341173 -0.5084605221205469 Q -0.0045126342854519 -0.4804771275180444 0.035227858846918814 -0.44062999544312587 L 0.35852214081566386 -0.1164681912660861 Q 0.4337068575525813 -0.04108172517840247 0.4798658157744463 0.02458625606719489 Q 0.5260247739963114 0.09025423731279214 0.5420694956532562 0.15588186868823606 Q 0.5602565878069483 0.22796543288974536 0.5359517293009852 0.3069828798698593 Q 0.511646870795022 0.3860003268499732 0.444876000831645 0.45259250453124295 Q 0.3931824240858048 0.5041477388651292 0.33398334526739354 0.5384847505515227 Q 0.27478426644898224 0.5728217622379163 0.2059488435955822 0.5748805508607746 Q 0.14464342095020338 0.5758739185024241 0.09357766510318595 0.560210595323009 Q 0.04251190925616849 0.5445472721435939 -0.01228282002507991 0.5025289482361045 Q -0.0670775493063283 0.460510624328615 -0.1401141312793338 0.38727805727200804 L -0.47737128921350647 0.049115909392969836 Q -0.5171117823458771 0.009268777318051313 -0.5423696586233365 -0.0031334349121338034 Q -0.5676275349007959 -0.01553564714231892 -0.5934555894054305 -0.0037396398090887573 Q -0.6192836439100653 0.008056367524141406 -0.6569739948203247 0.043497708995105855 L -0.678455342459444 0.021958718684339074 Q -0.654765335251183 0.0004802531788021813 -0.6170749843409236 -0.03496108829216227 Q -0.5793846334306639 -0.0704024297631266 -0.5373836023246688 -0.11229105765940917 Q -0.499690369280827 -0.14988341602786792 -0.4636096783767103 -0.18801569022088715 Q -0.42752898747259355 -0.22614796441390617 -0.4038332159971678 -0.25192846371443167 L -0.38235186835804846 -0.2303894734036649 Q -0.417894084504396 -0.1927942329016239 -0.4297592630436032 -0.1669978818663953 Q -0.44162444158281033 -0.1412015308311667 -0.429289959491811 -0.11591051001750996 Q -0.4169554774008116 -0.09061948920385321 -0.377214984268441 -0.050772357128934686 L -0.021698680841017004 0.30569793251425514 Q 0.03307875563873716 0.36062235780671037 0.0873335690954252 0.404253223853925 Q 0.14158838255211323 0.4478840899011396 0.19533642472043822 0.4683908037668948 Q 0.24908446688876318 0.48889751763265 0.3044911653341313 0.47552787696305676 Q 0.35989786377949945 0.4621582362934635 0.4169761881030314 0.40523266504979744 Q 0.4988243512839451 0.32360354402114416 0.5075364988832614 0.24295193889943734 Q 0.5162486464825776 0.16230033377773057 0.4706483379535582 0.08103820055869515 Q 0.425048029424539 -0.0002239326603401537 0.34556704315979764 -0.0799181968101772 L 0.010458019989536993 -0.41592644565813863 Q -0.02928247314283372 -0.45577357773305716 -0.05991789166402883 -0.4681829952971983 Q -0.09055331018522395 -0.48059241286133947 -0.12175890693359448 -0.46880361086206523 Q -0.1529645036819649 -0.457014808862791 -0.1906548545922243 -0.42157346739182655 L -0.21213620223134366 -0.44311245770259333 Q -0.1916770435696975 -0.4613687210622621 -0.15883296547936065 -0.49197675931442486 Q -0.12598888738902358 -0.5225847975665874 -0.09906514950056511 -0.5494364821154865 Q -0.07106446209656836 -0.5773622340463416 -0.04467631683229678 -0.6058279018017569 Q -0.01828817156802509 -0.6342935695571723 -0.002131046701367656 -0.6525555971840062 M 1.3391426089913248 -1.4057358421500794 Q 1.4318486971464457 -1.4400850698557344 1.4992033658612938 -1.4334112296896013 Q 1.5665580345761414 -1.4267373895234683 1.630216388511161 -1.4081506922567726 Q 1.654042102712286 -1.4007580626971157 1.6640258352828374 -1.404457210296186 Q 1.6911245379743343 -1.4144977537793777 1.6674465939571923 -1.5046695498362441 L 1.7002502866890044 -1.516823891947476 Q 1.7169504289782196 -1.4629958347605405 1.743532013289675 -1.386876267069355 Q 1.7701135976011302 -1.3107566993781692 1.816088717761007 -1.1866731660013152 L 1.7832850250291952 -1.1745188238900832 Q 1.7511064068642204 -1.2307220717143217 1.7162343951400394 -1.2810612280372935 Q 1.6813623834158584 -1.3314003843602653 1.6337621002877643 -1.3591809725312394 Q 1.5728482851861068 -1.3966270903508624 1.4949814342436971 -1.4010280304280036 Q 1.417114583301288 -1.405428970505145 1.3458022077973486 -1.379006487654641 Q 1.2744898322934093 -1.3525840048041373 1.2296738247319656 -1.296238729698299 Q 1.1848578171705217 -1.2398934545924605 1.1678053236007007 -1.1589610290755443 Q 1.1507528300308794 -1.078028603558628 1.1627309965018082 -0.9778446694748901 Q 1.174709162972737 -0.8776607353911523 1.2175135851905534 -0.7621346870747708 Q 1.3126345234523675 -0.5054101352605898 1.4394824253972784 -0.4169685482755958 Q 1.5663303273421896 -0.3285269612906019 1.740332523571801 -0.39299781944583134 Q 1.7916774339346373 -0.41202200709819414 1.8239242715531192 -0.44100152186478847 Q 1.8561711091716013 -0.46998103663138274 1.8722803252526823 -0.4921702565873217 Q 1.8925091824030482 -0.5207520177015375 1.8935632488978262 -0.5397961123524939 Q 1.8946173153926043 -0.5588402070034503 1.8845767719094129 -0.5859389096949471 L 1.833845604836445 -0.7228586706625104 Q 1.812179168899032 -0.7813348185757405 1.7902001956782003 -0.8056321715212356 Q 1.7682212224573683 -0.8299295244667306 1.7338577533916038 -0.8285515894115655 Q 1.6994942843258394 -0.8271736543564003 1.6390634392455206 -0.8064050162720557 L 1.628494446105319 -0.8349299664736315 Q 1.6546953509437472 -0.843015812789734 1.689189516014143 -0.8549854808029366 Q 1.7236836810845388 -0.8669551488161391 1.7617434649301318 -0.8802459409718667 Q 1.7998032487757245 -0.8935367331275944 1.8311806939974578 -0.9051626255818161 Q 1.8782468618300576 -0.9226014642631487 1.9155139711901354 -0.9380316276839945 Q 1.952781080550213 -0.9534617911048404 1.9779250860746211 -0.9644001324411006 L 1.9884940792148225 -0.9358751822395248 Q 1.9576450836500994 -0.9228230422752244 1.9451270589812932 -0.9084526109876407 Q 1.932609034312487 -0.8940821797000573 1.9371292618533928 -0.8665601507191039 Q 1.9416494893942984 -0.8390381217381505 1.9612021267036712 -0.7862669638652355 L 2.065835158791667 -0.5038699568696363 L 2.037310208590091 -0.4933009637294347 Q 2.026900316910841 -0.517018721743764 2.007060714955127 -0.5421087491747741 Q 1.9872211129994137 -0.5671987766057842 1.9686798953683895 -0.5603289310646533 Q 1.9601224103079167 -0.5571582331225928 1.953150274218474 -0.549708792650296 Q 1.946178138129032 -0.5422593521779991 1.930597371704961 -0.5186438847119814 Q 1.896742445297613 -0.46554885827867926 1.851633807451344 -0.425315632073164 Q 1.8065251696050753 -0.38508240586764875 1.7366390416112147 -0.35918837267415493 Q 1.5897355480731001 -0.30475805800211686 1.4624472456593811 -0.3265325273902244 Q 1.3351589432456623 -0.34830699677833205 1.2372593177917834 -0.4417972609612417 Q 1.1393596923379046 -0.5352875251441513 1.080701780409786 -0.6936009987628965 Q 1.0188731705396068 -0.8604719574421142 1.0338573451170592 -1.003897881393234 Q 1.0488415196945113 -1.147323805344354 1.1276715551242547 -1.251956914696248 Q 1.206501590553998 -1.356590024048142 1.3391426089913248 -1.4057358421500794 M 2.244017732546682 -1.6312017510758845 Q 2.2759946206523596 -1.631341569089633 2.3277178273523162 -1.6325082419973336 Q 2.379441034052273 -1.6336749149050345 2.4295663043300575 -1.6362815465589144 Q 2.500956840786297 -1.6399940219447433 2.5661925980678384 -1.644909489562762 Q 2.63142835534938 -1.649824957180781 2.6587694118645353 -1.6512467562647155 Q 2.781804166182735 -1.6576448521424207 2.8648846052100296 -1.6269349605391938 Q 2.947965044237325 -1.5962250689359672 2.9913372143188264 -1.5383198435679462 Q 3.034709384400328 -1.4804146181999256 3.0385798374621498 -1.4059861865753358 Q 3.0409495026020403 -1.3604177590500766 3.0254077520838134 -1.3078256751321602 Q 3.0098660015655856 -1.2552335912142434 2.9674267129723053 -1.2073349929680919 Q 2.9249874243790246 -1.1594363947219402 2.8490613799270132 -1.1257884860927074 Q 2.773135335475002 -1.0921405774634747 2.6546574239093284 -1.0859794480997587 L 2.5088384558284993 -1.0783965196521081 L 2.5072586790685722 -1.1087754713356142 L 2.6378881713076483 -1.1155685114033012 Q 2.7457334497840944 -1.1211767189010426 2.8009167353357505 -1.1583151209698506 Q 2.856100020887406 -1.1954535230386583 2.873643731848909 -1.2534804067581828 Q 2.891187442810412 -1.3115072904777074 2.8875539562625794 -1.3813788793497714 Q 2.881313838060867 -1.5013757384996202 2.820917289201452 -1.5644878769863824 Q 2.760520740342036 -1.6276000154731445 2.6222965101820837 -1.6204120312154757 Q 2.5524249213100196 -1.6167785446676433 2.5325024653775037 -1.589850592004714 Q 2.5125800094449877 -1.5629226393417848 2.5166874290207986 -1.4839373649646692 L 2.555865892666993 -0.7305393632137196 Q 2.558709490834862 -0.6758572501834087 2.569244975423848 -0.6489901266962315 Q 2.5797804600128345 -0.6221230032090542 2.60683597576388 -0.6143916223689386 Q 2.6338914915149263 -0.6066602415288231 2.685693687052879 -0.6063079668523488 L 2.6872734638128066 -0.5759290151688428 Q 2.652179691700782 -0.577150167063277 2.5997365056277357 -0.5751845259444903 Q 2.5472933195546896 -0.5732188848257036 2.494130154108554 -0.5704542754958309 Q 2.4348911983257175 -0.5673737108139729 2.3832864748827554 -0.563928616530009 Q 2.331681751439793 -0.5604835222460451 2.2999418298481045 -0.555786861479771 L 2.2983620530881774 -0.586165813163277 Q 2.349848293274145 -0.5918893288235039 2.3759559429692345 -0.602385318993492 Q 2.4020635926643243 -0.61288130916348 2.4097554790854416 -0.6406962987066136 Q 2.417447365506559 -0.6685112882497473 2.41460376733869 -0.723193401280058 L 2.3754253036924955 -1.4765914030310077 Q 2.37250271668663 -1.5327924636454937 2.362006726516642 -1.5589001133405835 Q 2.3515107363466536 -1.5850077630356731 2.3244157261766096 -1.5934986176678763 Q 2.2973207160065656 -1.6019894723000794 2.245597509306609 -1.6008227993923785 L 2.244017732546682 -1.6312017510758845 M 2.5135714359192622 -1.1045345839350738 Q 2.5957525831407215 -1.1057620860185264 2.6430374303451467 -1.1044133710359754 Q 2.690322277549572 -1.1030646560534243 2.720099733116983 -1.1015670432260027 Q 2.749877188684394 -1.1000694303985812 2.777455211713539 -1.0969343867299899 Q 2.8800935770712437 -1.0855182154498175 2.927232701525308 -1.0430394324375387 Q 2.9743718259793717 -1.00056064942526 3.0005344001136005 -0.9074917429383402 L 3.046564951193612 -0.7545338103023685 Q 3.0652299359072046 -0.6884900049786189 3.082719167881974 -0.6596999098861622 Q 3.100208399856744 -0.6309098147937057 3.133546257870604 -0.6341665168138009 Q 3.1592893779635878 -0.6370282746439143 3.1759673868016405 -0.6531261221226254 Q 3.1926453956396927 -0.6692239696013366 3.2110489039880337 -0.6960729334262694 L 3.234701994968623 -0.6805493425702864 Q 3.205252749678829 -0.6318032018629286 3.1723797448618245 -0.6049633178691181 Q 3.13950674004482 -0.5781234338753074 3.0772298890936325 -0.5748848915174567 Q 3.0210288284791464 -0.5719623045115914 2.976760541686318 -0.6031674638995499 Q 2.9324922548934897 -0.6343726232875084 2.9061717030832686 -0.7304794249427787 L 2.864855972431776 -0.880636428924389 Q 2.847788924140355 -0.9452402755019598 2.8278328785254536 -0.9921787527665236 Q 2.8078768329105523 -1.0391172300310874 2.775316608351024 -1.0648390153673173 Q 2.742756383791496 -1.0905608007035474 2.681998480424484 -1.087401247183693 L 2.5179521413335513 -1.078870452680086 L 2.5135714359192622 -1.1045345839350738 M 3.9936468949910857 -1.5386441653773633 L 4.136002357615993 -0.5223961364406039 Q 4.144986224748085 -0.460910990589326 4.168767860145268 -0.435790059573827 Q 4.192549495542451 -0.41066912855832804 4.215891740331264 -0.40361973530648587 L 4.208930802802808 -0.37400687072494077 Q 4.180014031974109 -0.38392909471155134 4.13724940176908 -0.3947627757423513 Q 4.09448477156405 -0.4055964567731512 4.05154611792081 -0.4156898161894125 Q 3.993801031986797 -0.42926364436990183 3.9432851387599586 -0.44035691655373854 Q 3.8927692455331204 -0.45145018873757525 3.8609796439696527 -0.4557978866842996 L 3.8679405814981087 -0.48541075126584476 Q 3.9441494799338948 -0.4706216470264363 3.9702732117255293 -0.48869896080721453 Q 3.9963969435171647 -0.5067762745879928 3.984534469633182 -0.589250016799389 L 3.882114126606946 -1.3898664206654279 L 3.9103290276656786 -1.4035460326206672 L 3.4953799176631284 -0.7948554495753145 Q 3.45776775094098 -0.741198470434989 3.4437545321521212 -0.7015249222646328 Q 3.4297413133632624 -0.6618513740942766 3.436758030787654 -0.6352026839794467 Q 3.443774748212046 -0.6085539938646167 3.47169160627317 -0.5910545302944085 Q 3.4996084643342944 -0.5735550667242001 3.5451603575592663 -0.561284970326016 L 3.5381994200308102 -0.5316721057444708 Q 3.497437503369493 -0.5443787047424639 3.452451908320848 -0.555734456087898 Q 3.4074663132722027 -0.5670902074333322 3.368969589316194 -0.576139426220325 Q 3.3319535085892626 -0.5848405981308951 3.305868228642199 -0.5901910968537556 Q 3.2797829486951358 -0.595541595576616 3.2568772065061316 -0.5978010122648035 L 3.2638381440345876 -0.6274138768463486 Q 3.2951912429982464 -0.6278561554632789 3.332723618022691 -0.6479390707963293 Q 3.370255993047135 -0.6680219861293797 3.4110890373804748 -0.7287341345386686 L 3.9699566033258495 -1.544212915400128 Q 3.9758791762421586 -1.542820727894437 3.9818017491584676 -1.5414285403887458 Q 3.9877243220747767 -1.5400363528830545 3.9936468949910857 -1.5386441653773633 M 4.026365446458819 -0.8669090740959465 L 4.019404508930363 -0.8372962095144014 L 3.5781728266653405 -0.9410141786883969 L 3.599940196484569 -0.967146574505714 L 4.026365446458819 -0.8669090740959465 M 5.176033591549247 -1.0649218777575937 Q 5.41122396050487 -0.9277706713045775 5.456958760066849 -0.7435154032434563 Q 5.502693559628828 -0.5592601351823352 5.374736847463165 -0.33983671833546897 Q 5.291220191019708 -0.19662023668092754 5.172932961932921 -0.1221001875433293 Q 5.054645732846135 -0.047580138405731054 4.913739452534452 -0.050516904437525934 Q 4.772833172222769 -0.05345367046932081 4.621733214513849 -0.1415675740564542 Q 4.602024524377903 -0.1530606919156455 4.569942915341939 -0.17352980102336077 Q 4.537861306305976 -0.193998910131076 4.503425724327776 -0.21496037468684553 Q 4.468990142349578 -0.23592183924261506 4.440084063483524 -0.2527784121027623 Q 4.394097119832984 -0.279595687107542 4.349040984929533 -0.3049897979171775 Q 4.303984850026082 -0.3303839087268129 4.2748602681211985 -0.34384644837822126 L 4.290184425266787 -0.37012470189281604 Q 4.336389871956157 -0.3467014600967752 4.363980590925104 -0.34117629864876375 Q 4.391571309894051 -0.33565113720075235 4.413246527379458 -0.3547043182202111 Q 4.434921744864867 -0.37375749923966983 4.4625052277269255 -0.4210583555659404 L 4.842544324937519 -1.0727590427278901 Q 4.870894015656857 -1.1213738117298906 4.876419177104869 -1.1489645306988376 Q 4.88194433855288 -1.1765552496677845 4.863931217799926 -1.1985043195624177 Q 4.8459180970469715 -1.2204533894570506 4.80201127392944 -1.247818369280281 L 4.817335431075028 -1.2740966227948758 Q 4.8441613894080735 -1.256692345116278 4.8876851085969655 -1.2286704089551832 Q 4.9312088277858575 -1.200648472794088 4.975334153942218 -1.176677526179597 Q 5.022087305450039 -1.151174163850547 5.0806656710394265 -1.1187749308059822 Q 5.139244036628814 -1.0863756977614174 5.176033591549247 -1.0649218777575937 M 5.129394033224974 -1.060426646026444 Q 5.068954050141405 -1.0956722074612975 5.037533739107439 -1.0840626019758037 Q 5.006113428073473 -1.07245299649031 4.966270619494943 -1.0041295373523638 L 4.583166690855233 -0.3471731994874948 Q 4.543323882276702 -0.2788497403495484 4.549350082501034 -0.2454032109315913 Q 4.555376282725365 -0.21195668151363414 4.615816265808933 -0.1767111200787808 Q 4.759032747463475 -0.09319446363532397 4.868132718369796 -0.09912154288988334 Q 4.977232689276117 -0.10504862214444277 5.066998390646867 -0.18651699692519672 Q 5.1567640920176165 -0.26798537170595066 5.240280748461073 -0.4112018533604921 Q 5.3260960284763685 -0.5583600730422227 5.347593620079568 -0.6752371629262631 Q 5.369091211682767 -0.7921142528103036 5.317566081591817 -0.8864276408398438 Q 5.266040951500867 -0.9807410288693842 5.129394033224974 -1.060426646026444 M 6.537529230712648 0.0839942891878096 Q 6.494303848971985 0.11565730632727178 6.4558933265398135 0.14804826583355568 Q 6.417482804107642 0.18043922533983958 6.398493265856063 0.19798863803633038 Q 6.378386695942623 0.21657036912673244 6.360987991915883 0.23472065428812527 Q 6.3435892878891424 0.2528709394495182 6.33233425800262 0.26534347344439935 L 6.308590934942661 0.23965174522167243 Q 6.368301892628797 0.1720427700097641 6.395483982629864 0.12414043713939227 Q 6.422666072630931 0.07623810426902056 6.41150659428922 0.031668148518078976 Q 6.400347115947509 -0.01290180723286255 6.345634241070214 -0.07210448531132002 L 6.259951814375583 -0.1648181132455082 Q 6.224852988982601 -0.20279718974866962 6.200643742948937 -0.21666749266466734 Q 6.176434496915274 -0.23053779558066517 6.1506925324692965 -0.21917441365836493 Q 6.124950568023319 -0.20781103173606458 6.083620396534585 -0.1696152511613493 L 5.529572692253172 0.3424146722186181 Q 5.489359552426295 0.3795781343994222 5.475446892876324 0.4048620554609703 Q 5.461534233326352 0.4301459765225185 5.4734561310795815 0.4553717817715398 Q 5.485378028832811 0.48059758702056105 5.520476854225793 0.5185766635237224 L 5.595836096981312 0.6001199748393338 Q 5.660872155797719 0.6704929695363682 5.713412041851415 0.6892470858502522 Q 5.76595192790511 0.7080012021641363 5.823926263598344 0.6844539030954906 Q 5.881900599291578 0.660906604026845 5.962850917731564 0.600592811661708 L 5.986594240791522 0.6262845398844348 Q 5.953337430739631 0.6508060415344648 5.9030710059560345 0.6972603692604699 Q 5.881847404380738 0.7168744187447832 5.843741257975657 0.7551972692214182 Q 5.805635111570576 0.7935201196980531 5.7673171819956295 0.8372163453141105 Q 5.716903007229872 0.7781830937715459 5.6513931458504825 0.7061769082156981 Q 5.585883284471093 0.6341707226598505 5.534267364775531 0.578319139566966 Q 5.511556360109485 0.5537444430060969 5.475941375519548 0.5152068506720067 Q 5.44032639092961 0.4766692583379164 5.398475139342232 0.4325041510605645 Q 5.356623887754854 0.3883390437832126 5.313740317773566 0.343056904844003 Q 5.270856747792276 0.29777476590479335 5.231543935555703 0.2574769128099701 L 5.2538845687928575 0.2368305449317456 Q 5.291217457509554 0.2727449846470846 5.315985219374147 0.2860991283661268 Q 5.340752981238739 0.299453272085169 5.3670534615156456 0.28757373096591304 Q 5.393353941792551 0.27569418984665717 5.433567081619428 0.23853072766585307 L 5.987614785900841 -0.2734991957141143 Q 6.028944957389576 -0.3116949762888296 6.042299101108618 -0.3364627381534222 Q 6.05565324482766 -0.3612305000180147 6.0448483787362886 -0.3874886236609473 Q 6.034043512644917 -0.41374674730387984 6.000061718913793 -0.45275814220095245 L 6.022402352150947 -0.47340451007917694 Q 6.059481101063804 -0.43104202019653126 6.101247639383236 -0.38472756286341037 Q 6.143014177702668 -0.33841310553028947 6.183748397628188 -0.2932156798590264 Q 6.224482617553708 -0.24801825418776324 6.260097602143645 -0.20948066185367298 Q 6.295712586733583 -0.1709430695195827 6.318423591399629 -0.14636837295871358 Q 6.365910237519545 -0.09498491651325991 6.426859379394281 -0.03015472349154069 Q 6.487808521269017 0.034675469530178527 6.537529230712648 0.0839942891878096 M 5.977945638604588 0.24491773406592604 Q 5.977945638604588 0.24491773406592604 5.966775321986011 0.2552409180050383 Q 5.955605005367435 0.26556410194415053 5.955605005367435 0.26556410194415053 L 5.76669073928168 0.06114730782419353 Q 5.76669073928168 0.06114730782419353 5.777861055900257 0.050824123885081285 Q 5.789031372518834 0.04050093994596904 5.789031372518834 0.04050093994596904 L 5.977945638604588 0.24491773406592604 M 6.155331051393229 0.14104562426351736 Q 6.087530973091695 0.1954196460690264 6.05453618243292 0.226947713717292 Q 6.021541391774145 0.2584757813655576 5.993615600227703 0.2842837412133382 Q 5.965689808681261 0.31009170106111883 5.933211177219441 0.34217828454031324 Q 5.900732545757622 0.37426486801950765 5.841191014607379 0.4375751431198782 L 5.81744769154742 0.4118834148971514 Q 5.8490634311512215 0.37438109964456145 5.8774551456713695 0.33675171449005176 Q 5.905846860191517 0.29912232933554217 5.908531087310385 0.25832703490990605 Q 5.911215314429252 0.21753174048426993 5.865793305097157 0.16838234736253166 L 5.888133938334311 0.14773597948430717 Q 5.922200445333382 0.18459802432561084 5.955345944661907 0.19020978009031891 Q 5.988491443990433 0.19582153585502693 6.020207656040734 0.1830791028777527 Q 6.051923868091035 0.17033666990047847 6.080154035664567 0.15046060102304898 Q 6.108384203238098 0.1305845321456195 6.131587728333271 0.1153538960407905 L 6.155331051393229 0.14104562426351736 M 7.256120403040146 1.3459374584143398 L 7.228809469851207 1.3593348211529268 Q 7.204668406536161 1.3135761028686588 7.180655794204875 1.2957078495607008 Q 7.156643181873589 1.277839596252743 7.125313039863073 1.283043679034648 Q 7.093982897852557 1.288247761816553 7.0434576714530195 1.3130328828829392 L 6.6324281269594785 1.5146631920986735 Q 6.536839860798191 1.5615539616837282 6.459802621274584 1.5840971848690315 Q 6.382765381750977 1.6066404080543348 6.315467641542616 1.6006878240903695 Q 6.241367978422609 1.5946836193552278 6.1743928680341025 1.5462190171934713 Q 6.107417757645596 1.4977544150317148 6.065885933155976 1.4130905221460022 Q 6.033732262583367 1.3475442824925472 6.02029678521058 1.2804395192319162 Q 6.006861307837794 1.213334755971285 6.027087605761982 1.147505803964725 Q 6.045896736255546 1.0891486430067407 6.077175858439068 1.0458512108810558 Q 6.10845498062259 1.0025537787553709 6.165885371476128 0.9642164326368682 Q 6.2233157623296655 0.9258790865183656 6.316172935172061 0.8803280532071698 L 6.7449545862384115 0.6699894582113538 Q 6.79547981263795 0.6452043371449678 6.815357670356696 0.6252883647920224 Q 6.835235528075442 0.6053723924390769 6.832388888965584 0.577121183008714 Q 6.8295422498557254 0.5488699735783511 6.808132279859574 0.5017715190202245 L 6.835443213048514 0.4883741562816375 Q 6.848144897264583 0.5177205042669534 6.869554867260734 0.56481895882508 Q 6.8909648372568855 0.6119174133832066 6.91708969459713 0.6651737331016387 Q 6.940535079389657 0.7129678661822829 6.965011076773166 0.7594093577962744 Q 6.989487074156676 0.8058508494102657 7.0062595879654985 0.8365885544406169 L 6.978948654776559 0.8499859171792039 Q 6.954807591461514 0.804227198894936 6.934208845778845 0.7846842752446546 Q 6.913610100096176 0.7651413515943734 6.885693824734277 0.7686707640339551 Q 6.857777549372379 0.7722001764735369 6.807252322972841 0.7969852975399228 L 6.355256378695891 1.0187116508635377 Q 6.2856134990640955 1.0528749258469345 6.2268304667439045 1.0901816593744549 Q 6.168047434423714 1.1274883929019752 6.131319030795198 1.171764816847466 Q 6.094590627166682 1.2160412407929568 6.089398247689205 1.2728011625653823 Q 6.084205868211729 1.3295610843378078 6.119708879468984 1.4019350572884979 Q 6.170618857875615 1.5057166034064682 6.244164198649656 1.5399462071863845 Q 6.317709539423698 1.5741758109663007 6.409329616590404 1.5571851107683443 Q 6.500949693757111 1.5401944105703878 6.602000146556187 1.4906241684376158 L 7.028050704303644 1.2816253097156587 Q 7.078575930703182 1.2568401886492726 7.100192984728222 1.2318356793053864 Q 7.121810038753262 1.2068311699615 7.120702595949698 1.1734914235401963 Q 7.119595153146134 1.1401516771188926 7.098185183149983 1.093053222560766 L 7.1254961163389225 1.079655859822179 Q 7.136188196144204 1.104905567829154 7.154583759524173 1.145859062419769 Q 7.172979322904141 1.1868125570103845 7.189726026327375 1.220951223496559 Q 7.207142597887538 1.2564554366421803 7.225589782038684 1.290607008321149 Q 7.24403696618983 1.3247585800001174 7.256120403040146 1.3459374584143398 M 7.384099477124994 1.7848823768369153 Q 7.388044961820438 1.8166152316173791 7.395360682791907 1.8678317471535577 Q 7.402676403763376 1.9190482626897363 7.411231618925591 1.9685067861465502 Q 7.423416319308138 2.038947713494134 7.436062767048502 2.103134419357188 Q 7.448709214788867 2.167321125220242 7.453375695786438 2.1942985016512315 Q 7.48474481804789 2.375646420992883 7.417868882278438 2.4798297010332044 Q 7.3509929465089865 2.5840129810735264 7.220602293759204 2.606567639228455 Q 7.166647540897225 2.615900601223598 7.104336199730839 2.6081560169031643 Q 7.042024858564454 2.6004114325827308 6.984169119682981 2.564883349732978 Q 6.926313380801509 2.5293552668832255 6.881618078805569 2.458363594825922 Q 6.8369227768096295 2.3873719227686183 6.816701359153487 2.270469958234331 L 6.791813460499772 2.126590617269054 L 6.821788323200872 2.1214056383828632 L 6.844083732411491 2.2502975479975906 Q 6.862490407457466 2.3567083105864937 6.912678307515558 2.4059114566546977 Q 6.962866207573649 2.455114602722902 7.032310766264247 2.463940681496525 Q 7.101755324954843 2.472766760270148 7.178191224842647 2.4595450641103627 Q 7.3205718226728695 2.4349164144009583 7.3812909146088455 2.3665288464538494 Q 7.442010006544822 2.2981412785067405 7.4184183526126555 2.161755653216738 Q 7.406492901174418 2.0928134690042097 7.37738478265815 2.076238297166702 Q 7.348276664141882 2.059663125329194 7.270342021119023 2.0731440704332895 L 6.526965426131759 2.2017315468108123 Q 6.47301067326978 2.211064508805955 6.447977663921112 2.2269715633164386 Q 6.422944654572444 2.242878617826922 6.419655672536924 2.2774064604639888 Q 6.416366690501403 2.3119343031010553 6.424257659892293 2.375400012661983 L 6.3942827971911935 2.380584991548173 Q 6.390539810909256 2.341099172148125 6.380919224704402 2.2810198222737714 Q 6.37129863849955 2.220940472399418 6.360669431782859 2.159492003862164 Q 6.350558722954787 2.1010410215950204 6.340994887280736 2.050213379475306 Q 6.331431051606685 1.999385737355592 6.322989337506075 1.9684306294080567 L 6.3529642002071744 1.9632456505218663 Q 6.3647761505838085 2.0136844192251164 6.378305465919555 2.038356930422721 Q 6.391834781255301 2.063029441620326 6.420367651352148 2.0673554194330843 Q 6.448900521448994 2.0716813972458428 6.502855274310973 2.0623484352507 L 7.246231869298238 1.9337609588731772 Q 7.301685365295272 1.9241687479337248 7.326357876492876 1.9106394325979783 Q 7.351030387690482 1.897110117262232 7.356235361542922 1.869196994260758 Q 7.361440335395363 1.8412838712592843 7.354124614423894 1.7900673557231057 L 7.384099477124994 1.7848823768369153" fill="#000000" fill-rule="nonzero"></path></g><g><path d=" M -0.1431928394925761 4.981839094492967 Q -0.13618947911402157 4.960300165610404 -0.13473680090567086 4.936238249471556 Q -0.13328412269732015 4.912176333332707 -0.13738212665917338 4.8855914299375724 Q -0.1414801306210266 4.859006526542438 -0.15079691685395713 4.831442930214312 Q -0.16011370308688777 4.8038793338861865 -0.17636966481919902 4.776353042233338 Q -0.22361355360372825 4.696354757117249 -0.2762484813859667 4.676970161948442 Q -0.32888340916820513 4.657585566779635 -0.3813554026314462 4.6885734938318535 Q -0.4174836604258088 4.709909443605512 -0.4277144036806828 4.73973544549485 Q -0.43794514693555675 4.76956144738419 -0.42849614876590136 4.815030080468876 Q -0.4190471505962459 4.860498713553563 -0.39826637774150864 4.927120064182019 Q -0.3734216144536935 5.0006229877236885 -0.3644060057376166 5.059109775192985 Q -0.35539039702153963 5.11759656266228 -0.3724078059281789 5.1624524162418775 Q -0.38942521483481807 5.207308269821475 -0.44447779814051364 5.239820193286096 Q -0.4866274322339368 5.264712134688698 -0.5272464876219503 5.26665635596867 Q -0.5678655430099637 5.268600577248641 -0.6057822210901801 5.251545863666724 Q -0.6436988991703965 5.234491150084807 -0.6774671040274707 5.199903895467235 Q -0.7112353088845449 5.165316640849665 -0.7396832419160894 5.117145630457181 Q -0.7676231761434991 5.069834816678849 -0.7833848546895605 5.02055290141665 Q -0.7991465332356218 4.97127098615445 -0.8026520556032758 4.921132165424601 Q -0.8061575779709298 4.870993344694753 -0.7958626498368817 4.81966571859813 L -0.7290514846855314 4.820816668257753 Q -0.7366034396900015 4.847320380009325 -0.7381949121280824 4.879005569356698 Q -0.7397863845661634 4.91069075870407 -0.7353191760299058 4.945759131921879 Q -0.7308519674936482 4.980827505139689 -0.7182534869447322 5.016894869201381 Q -0.7056550063958162 5.052962233263072 -0.6853350542304274 5.087370097829131 Q -0.6421551558789759 5.160486810032008 -0.5913591176438803 5.185598186276028 Q -0.5405630794087846 5.210709562520047 -0.4880910859455436 5.179721635467829 Q -0.45024243492287797 5.157369688085901 -0.4396391959470968 5.123263001036696 Q -0.4290359569713156 5.089156313987489 -0.43879655712920695 5.039230896837927 Q -0.44855715728709833 4.989305479688365 -0.47035392775010504 4.920963735831606 Q -0.4933224968154992 4.848673206714105 -0.5011663069291887 4.794135204505549 Q -0.5090101170428782 4.739597202296994 -0.49228730336008725 4.7001362298934835 Q -0.4755644896772962 4.660675257489972 -0.42653328267066115 4.631719325654293 Q -0.36976030613666266 4.598191404581401 -0.31411139905839125 4.603033848953195 Q -0.25846249198011984 4.607876293324988 -0.20929193971188054 4.644969528434458 Q -0.16012138744364124 4.682062763543927 -0.12252947593767172 4.745717312991137 Q -0.09865353214333972 4.786146553856257 -0.08625144841032273 4.825810505368673 Q -0.07384936467730552 4.8654744568810875 -0.07180694498938445 4.904295218543739 Q -0.06976452530146338 4.94311598020639 -0.07774986975951192 4.982637846342573 L -0.1431928394925761 4.981839094492967 M -0.008152329246266965 6.035679960772924 L 0.4150933180034164 5.642895938480525 L -0.08833711338802774 5.759826552089727 L -0.1182376271957537 5.727607160257571 L 0.03522088121889777 5.23356321043109 L -0.38802476603078556 5.62634723272349 L -0.4355937652703496 5.575089109354152 L 0.08431005747580111 5.092603545638573 L 0.13323817097935275 5.1453261868184645 L -0.03440233142263893 5.678426669728964 L 0.51107193636789 5.55246213815207 L 0.559320492739448 5.604452520426685 L 0.03941666999329707 6.086938084142263 L -0.008152329246266965 6.035679960772924 M 0.8976154097197773 5.848233009628484 L 0.9463180070729107 5.881430878416383 L 0.7903312168994545 6.633502326096976 L 0.7292466032701006 6.59186432117656 L 0.7782175848705294 6.356844312009063 L 0.5148933720629094 6.177350750257541 L 0.3148617918925921 6.309401098608335 L 0.2529517105114903 6.267200417945752 L 0.8976154097197773 5.848233009628484 M 0.7959572666617889 6.302440773788237 L 0.875414563662712 5.932238961794688 L 0.5582225541583578 6.140390160043917 L 0.7959572666617889 6.302440773788237 M 1.0190169304951855 6.749236048416024 L 1.2995322290756373 6.097773485130673 L 1.574798100886349 6.216301076080159 Q 1.6170055345639915 6.2344753066924135 1.6443657975665475 6.266922306760694 Q 1.6717260605691036 6.299369306828974 1.6850358293715932 6.340449897415335 Q 1.6983455981740831 6.381530488001697 1.6969615354092875 6.423897753322498 Q 1.6955774726444919 6.466265018643298 1.6793787018813955 6.503884687790762 Q 1.6592290114199826 6.5506798859985835 1.6235575911098634 6.584265473358474 Q 1.5878861707997443 6.617851060718364 1.5430651915706963 6.632269435876448 Q 1.4982442123416484 6.646687811034532 1.4502507531536184 6.636898925542972 L 1.5016497590699667 6.957054424547457 L 1.4291630794931458 6.925842158930759 L 1.379445840281068 6.619462938587523 L 1.18675973001357 6.536493624922882 L 1.0832456339176848 6.776892486304237 L 1.0190169304951855 6.749236048416024 M 1.2112554321431306 6.479605344748668 L 1.4241277063434143 6.571266681749605 Q 1.4626649283969138 6.587860544482533 1.500196183790148 6.579004678708492 Q 1.5377274391833822 6.570148812934451 1.568141787454675 6.54245714244525 Q 1.5985561357259679 6.514765471956048 1.615149998458896 6.476228249902548 Q 1.6321389531616557 6.436773474943013 1.6286675283928138 6.395578500460993 Q 1.6251961036239717 6.354383525978974 1.6042652034990228 6.320898096573642 Q 1.5833343033740739 6.2874126671683115 1.5466321871326456 6.271608988375046 L 1.3392652303685761 6.1823182031931 L 1.2112554321431306 6.479605344748668 M 2.392065691462278 6.515293875563574 L 2.1458797563800966 6.458079092712358 L 1.9993375457572187 7.08862646794261 L 1.9312228601613581 7.072796290869151 L 2.077765070784236 6.442248915638899 L 1.8315791357020546 6.385034132787683 L 1.8456001496814038 6.324703982688492 L 2.406086705441628 6.454963725464384 L 2.392065691462278 6.515293875563574 M 3.189158669479837 6.606089947765457 Q 3.173818489822249 6.5894270728012465 3.153558236055183 6.5763653654264775 Q 3.1332979822881173 6.563303658051709 3.1081176544115734 6.553843118266381 Q 3.08293732653503 6.544382578481054 3.0543456352858587 6.538990960935078 Q 3.0257539440366874 6.5335993433891035 2.9937930681297362 6.534274202826666 Q 2.9009067725251594 6.536235513067079 2.8582086290276925 6.572609496824288 Q 2.8155104855302255 6.6089834805814975 2.8167969363330774 6.669908900279124 Q 2.8176826893448768 6.711857549906997 2.838663770050939 6.735395875010022 Q 2.8596448507570007 6.758934200113048 2.9039073954904158 6.772987928967784 Q 2.9481699402238304 6.7870416578225194 3.0164242312448826 6.801588019471177 Q 3.0926687412426728 6.8159656662604435 3.1480654625710685 6.8367788537881635 Q 3.2034621838994646 6.8575920413158835 3.234216355965624 6.894413512046628 Q 3.264970528031783 6.931234982777372 3.2663202469069064 6.995156734591275 Q 3.2673536254206725 7.044096825823794 3.2491360722181772 7.080453509010166 Q 3.230918519015682 7.116810192196539 3.1974662329427175 7.1414978872791615 Q 3.164013946869753 7.166185582361784 3.117313937991792 7.178662721939763 Q 3.070613929113831 7.191139861517742 3.0146823962766667 7.192320865533475 Q 2.959749640811594 7.193480780191784 2.909068855910563 7.183059852962625 Q 2.8583880710095317 7.172638925733467 2.8129685787233463 7.151115455945463 Q 2.767549086437161 7.129591986157458 2.7278586414157306 7.095457263073759 L 2.761613756065802 7.037788825354669 Q 2.7810123132840303 7.057363675005462 2.8078489773993907 7.074283411045345 Q 2.8346856415147514 7.091203147085228 2.867441157111682 7.104500626178246 Q 2.9001966727086126 7.117798105271263 2.9378089943427494 7.124498084658563 Q 2.9754213159768863 7.131198064045861 3.015372410860575 7.1303544897489095 Q 3.1002684874884143 7.128561894367887 3.1470566425826574 7.096598051355397 Q 3.1938447976769 7.064634208342907 3.192558346874048 7.003708788645282 Q 3.191630415147401 6.959762584273224 3.167100890245457 6.933801128490951 Q 3.142571365343513 6.907839672708678 3.0942715324068812 6.891872746539453 Q 3.04597169947025 6.875905820370227 2.9757198537050136 6.861401637436418 Q 2.901451809093984 6.845983034560211 2.8500712866113806 6.826084266974888 Q 2.7986907641287777 6.806185499389565 2.7724943583093045 6.77226545866669 Q 2.7462979524898317 6.738345417943816 2.745095859116675 6.681415107734559 Q 2.7437039615267045 6.615495801176472 2.7752046603569185 6.569366026630003 Q 2.806705359187133 6.5232362520835325 2.8631400694969305 6.498562890466209 Q 2.919574779806728 6.4738895288488845 2.9934843053415525 6.4723289163995235 Q 3.040426841829887 6.471337716600605 3.0810776742951487 6.479971982659817 Q 3.1217285067604097 6.488606248719029 3.15656593453122 6.505856658585568 Q 3.1914033623020304 6.5231070684521075 3.2219360961152397 6.549441376775883 L 3.189158669479837 6.606089947765457 M 3.421801824708324 6.805966413452592 Q 3.4083480078964543 6.7424404420850275 3.4174014048968906 6.6767006868736445 Q 3.4264548018973264 6.610960931662262 3.4578201127126187 6.551728598610878 Q 3.489185423527911 6.4924962655594936 3.5444438048109044 6.449648071930901 Q 3.5997021860938974 6.406799878302309 3.677887997007823 6.390241334533854 Q 3.77073364746811 6.370578063808813 3.8457066336008325 6.399120327188626 Q 3.920679619733555 6.42766259056844 3.966028706302312 6.487497112337895 L 3.919313342400581 6.532110080817127 Q 3.88710677729886 6.490936498238625 3.8472084856036113 6.4713044886356625 Q 3.8073101939083625 6.4516724790327 3.7662221682043433 6.448120388381286 Q 3.725134142500324 6.444568297729871 3.6870185596797853 6.452640587816993 Q 3.6244699109486445 6.465887422831757 3.58185913759006 6.500951258118749 Q 3.5392483642314754 6.536015093405743 3.515304782288261 6.584485195656805 Q 3.491361200345046 6.63295529790787 3.4856132598738854 6.68778342687093 Q 3.4798653194027245 6.7426115558339905 3.491042336446432 6.795386978200891 Q 3.5032542624756675 6.853049013749911 3.533977732247856 6.901684800174697 Q 3.5647012020200446 6.950320586599483 3.6084745615111973 6.983428131315277 Q 3.65224792100235 7.016535676031071 3.7047191228980068 7.030441463463836 Q 3.7571903247936635 7.0443472508966 3.8128977150698358 7.032549288461575 Q 3.8519906205267986 7.024270016577348 3.89014042609713 7.001894264188972 Q 3.9282902316674613 6.979518511800596 3.957960035780875 6.943621319749941 Q 3.987629839894289 6.907724127699285 3.999609775228757 6.858213686887452 L 4.062503942054524 6.875528421748045 Q 4.051972879299796 6.931880121014846 4.014674364517199 6.977562221229398 Q 3.9773758497346017 7.02324432144395 3.9260897749216497 7.053507923072479 Q 3.8748037001086977 7.083771524701008 3.8220282777417975 7.0949485417447145 Q 3.7506837252828404 7.1100582129334295 3.684547117852143 7.091898439509518 Q 3.618410510421445 7.073738666085607 3.5640531087525256 7.031639917644546 Q 3.5096957070836057 6.989541169203486 3.472682656099005 6.930494099648246 Q 3.435669605114405 6.871447030093005 3.421801824708324 6.805966413452592 M 4.591467822531036 6.065864965044196 L 4.877338470575184 6.7149953654159695 L 4.814253966877082 6.742777160789275 L 4.680579241312776 6.439240128502755 L 4.295672341937401 6.608749343751468 L 4.429347067501707 6.912286376037987 L 4.3653482956340675 6.940470806126847 L 4.079477647589918 6.291340405755074 L 4.143476419457558 6.263155975666214 L 4.270708989572983 6.55206471724013 L 4.655615888948358 6.382555501991417 L 4.528383318832934 6.093646760417501 L 4.591467822531036 6.065864965044196 M 5.4139915163584345 6.377045884687593 Q 5.353457548578528 6.421197831075283 5.28656247622913 6.432894493691974 Q 5.219667403879731 6.444591156308665 5.1538364729293065 6.428926973647241 Q 5.088005541978882 6.413262790985816 5.0306639983959 6.375332201539157 Q 4.973322454812918 6.337401612092499 4.933291356754747 6.282517481305384 Q 4.891494180841068 6.225211991807074 4.873701496207624 6.158435464053792 Q 4.855908811574181 6.091658936300511 4.862903774792946 6.024113883853509 Q 4.869898738011711 5.956568831406509 4.901766599560211 5.896848554351092 Q 4.93363446110871 5.837128277295675 4.990939950607021 5.795331101381997 Q 5.051473918386926 5.751179154994308 5.118957683354827 5.740289611948016 Q 5.186441448322729 5.729400068901723 5.252163165797205 5.745762157657598 Q 5.317884883271681 5.762124246413473 5.3749320805454115 5.799651276074933 Q 5.431979277819143 5.8371783057363915 5.471421683258812 5.891255316953107 Q 5.51321885917249 5.948560806451418 5.531011543805934 6.015337334204699 Q 5.548804228439378 6.082113861957981 5.542212825005811 6.149364568095731 Q 5.5356214215722455 6.21661527423348 5.503459213714495 6.275931991503698 Q 5.471297005856744 6.335248708773915 5.4139915163584345 6.377045884687593 M 4.989789726682659 6.241308998010209 Q 5.023933898555804 6.288121933093335 5.070764225483265 6.320117670358121 Q 5.1175945524107265 6.352113407622905 5.1702744810425365 6.365004628146865 Q 5.222954409674347 6.377895848670825 5.276522677991998 6.369118686148222 Q 5.330090946309649 6.360341523625618 5.376903881392775 6.326197351752473 Q 5.4261381751870985 6.290287102023819 5.450271812579624 6.241153960981279 Q 5.474405449972148 6.192020819938739 5.477231638864548 6.137408342858456 Q 5.480057827756948 6.082795865778173 5.463385271243491 6.029422061413994 Q 5.446712714730035 5.976048257049815 5.414334620712397 5.931656680677884 Q 5.380190448839251 5.8848437455947575 5.333654468221042 5.853251568115172 Q 5.287118487602832 5.8216593906355865 5.233740652876571 5.8086589566356785 Q 5.18036281815031 5.795658522635771 5.12749245592711 5.8045448986343215 Q 5.07462209370391 5.8134312746328725 5.027809158620783 5.847575446506019 Q 4.979381984396858 5.88289700361617 4.954954000695082 5.93162658487351 Q 4.930526016993306 5.980356166130851 4.927699828100907 6.034968643211134 Q 4.924873639208507 6.089581120291418 4.941142635936764 6.143249270964848 Q 4.95741163266502 6.196917421638277 4.989789726682659 6.241308998010209 M 6.094673702496709 5.757213550840132 Q 6.0450752671698185 5.813371816822302 5.982271900044412 5.8392078323570455 Q 5.919468532919007 5.865043847891788 5.85180877488614 5.8639324383435305 Q 5.784149016853274 5.862821028795272 5.719981408804001 5.838137019528442 Q 5.655813800754729 5.81345301026161 5.604896972930894 5.768483762231896 Q 5.551733814467773 5.721530576789107 5.519970517498736 5.660156500413923 Q 5.488207220529699 5.598782424038741 5.48048370553335 5.531316796222784 Q 5.472760190537002 5.463851168406828 5.491011333316553 5.398667060846085 Q 5.5092624760961035 5.333482953285342 5.556215661538893 5.280319794822221 Q 5.6058140968657835 5.22416152884005 5.669366240870952 5.198986825776332 Q 5.73291838487612 5.173812122712614 5.800621875113355 5.1756285769362655 Q 5.86832536535059 5.177445031159918 5.932118584959981 5.201798384191236 Q 5.995911804569372 5.226151737222555 6.046079855513445 5.270459672781243 Q 6.099243013976566 5.317412858224033 6.131006310945603 5.378786934599216 Q 6.16276960791464 5.440161010974399 6.170823779146501 5.507252250350474 Q 6.178877950378362 5.57434348972655 6.1602524191589305 5.63919694105178 Q 6.141626887939498 5.70405039237701 6.094673702496709 5.757213550840132 M 5.651188845902659 5.716069380648537 Q 5.694617904928871 5.754425503967998 5.747242404945632 5.775578960452364 Q 5.799866904962393 5.796732416936729 5.85408708195841 5.797969693692596 Q 5.9083072589544265 5.799206970448462 5.958725947353325 5.7790934473201085 Q 6.009144635752223 5.758979924191756 6.047500759071686 5.715550865165544 Q 6.087840819804223 5.669875475500045 6.100820664215007 5.6166963288204315 Q 6.113800508625792 5.563517182140818 6.104792771486265 5.509578599770448 Q 6.095785034346737 5.4556400174000785 6.06800348419779 5.407112472600021 Q 6.040221934048843 5.3585849277999635 5.9990392056619175 5.322212741893578 Q 5.955610146635705 5.283856618574116 5.903360035058826 5.263033818325263 Q 5.851109923481946 5.242211018076411 5.796184701810535 5.241017473524913 Q 5.741259480139125 5.239823928973415 5.69154583641562 5.259893719897399 Q 5.6418321926921156 5.279963510821384 5.603476069372654 5.323392569847596 Q 5.563797321111141 5.368319182633333 5.550443088260476 5.421167673077433 Q 5.53708885540981 5.474016163521534 5.546096592549337 5.527954745891904 Q 5.555104329688865 5.581893328262274 5.5825552236022995 5.630795261502212 Q 5.610006117515733 5.67969719474215 5.651188845902659 5.716069380648537 M 6.46943098921647 5.264606388247253 L 5.857470034281618 4.906003413168651 L 5.892825257176691 4.845669234513102 L 6.451347368159485 5.172957583598925 L 6.658427959402058 4.819571680044996 L 6.711866803354115 4.850886306037776 L 6.46943098921647 5.264606388247253" fill="#3361e1" fill-rule="nonzero"></path></g><g clip-path="url(#SvgjsClipPath1005)"><g clip-path="url(#SvgjsClipPath100193af6264-b164-4355-a9a5-293120c95fdd)"><path d=" M 3.0903794642526936 0 L 3.0903794642526936 1.0010956506927646 C 3.0852661317387002 1.5494559779564516 3.225499198025907 2.0893855949286215 3.496811187733194 2.5659514339552967 C 3.7736608440013297 3.0397200534521316 4.171104340683348 3.4316704286353277 4.648679897136464 3.7019000067245074 L 4.648679897136464 3.7019000067245074 L 5.516795583003796 4.202916071383643 C 5.57867356812574 4.077918528857887 5.6315625646263685 3.9486690877055506 5.675060470718603 3.8161503990392944 C 5.82971988170974 3.3475941098970687 5.861957559151497 2.8472653560009853 5.768708333271714 2.3627355722149965 C 5.6860279702136935 2.4512399537289524 5.588387624517715 2.524470213000903 5.480272916608094 2.579062134712687 C 5.242908903500561 2.6991790320662568 4.967979519547268 2.7216976979890806 4.714233400923616 2.6418062026232696 L 4.702995657417271 2.6418062026232696 C 4.44593292571155 2.558170922106489 4.233100543477122 2.3750203934958924 4.11207764470715 2.133298308959866 C 3.98985631712905 1.8923534348834594 3.968626064765712 1.6126532846996389 4.053079491298661 1.356021049769027 C 4.137635574432545 1.0994776448454986 4.32051609470999 0.8869590292008308 4.56158738496208 0.7651030370589053 C 4.632534169192122 0.7295411586884187 4.707313551444944 0.7022058382850618 4.784469297838483 0.6836293966376773 C 4.500111320966957 0.44414908299007017 4.1723103535642485 0.26164883537692635 3.8189598349159137 0.14609066558280695 C 3.5833150380928527 0.06655428835143293 3.3384715126126707 0.017459699694763072 3.0903794642526936 0 Z" fill="#000000" transform="matrix(1,0,0,1,0,0)" fill-rule="evenodd"></path></g><g clip-path="url(#SvgjsClipPath100193af6264-b164-4355-a9a5-293120c95fdd)"><path d=" M 5.34073760140395 4.51008106055786 L 4.472621915536617 4.009064995898707 C 3.9995545874774323 3.730742180233221 3.461307218620317 3.582449537792975 2.9124485254018007 3.5792213067799286 C 2.3637480817968135 3.5823638738697294 1.8257024126739816 3.7310131278015537 1.353211613892507 4.0100014745242465 L 0.48415944939961914 4.511954017808922 C 0.8447366462308572 5.05853314207451 1.3798205930858192 5.466860620334569 2.0021913013855954 5.670378077590904 L 2.0536976257897672 5.6872346928504705 C 2.0359045319046944 5.6582038554590035 2.019047916645112 5.629173018067537 2.003127780011085 5.5982692234250075 C 1.8812161412935535 5.357197079616809 1.8603231777794433 5.077500955153597 1.945066105228152 4.820991964234185 L 1.945066105228152 4.820991964234185 C 2.0302541646063696 4.566019795202171 2.2126704327261355 4.354995809757369 2.452637520266016 4.233819866026172 C 2.6937378895950186 4.112009705881346 2.9733929527890965 4.0911198095945505 3.2299147794568714 4.175758191243256 C 3.4866130139195297 4.260040182430118 3.6992247475912268 4.4430008343853435 3.8208327921670264 4.6842660849066595 C 3.943054119745093 4.925210958983066 3.9642843721084313 5.204911109166886 3.8798309455754496 5.461543344097498 C 3.853572671948651 5.542055005509205 3.817062298759871 5.618852687044143 3.7711994250138345 5.690044128727056 C 4.415158080958984 5.490195634338343 4.969862684108219 5.073174273975523 5.34073760140395 4.51008106055786 Z" fill="#51a8db" transform="matrix(1,0,0,1,0,0)" fill-rule="evenodd"></path></g><g clip-path="url(#SvgjsClipPath100193af6264-b164-4355-a9a5-293120c95fdd)"><path d=" M 0.3034190746720906 4.2057255072602455 L 1.1724712391649785 3.7037729639755703 C 1.6496326116466398 3.4329024832909103 2.046694098903013 3.0406871492557235 2.3234034699427584 2.566887912580787 C 2.594632475104198 2.0899898413435016 2.7345524470973883 1.5496984021457931 2.728898714797703 1.0010956506927646 L 2.728898714797703 0 C 2.1054756513126214 0.039687253758841606 1.5111392192318949 0.27794691675750116 1.0329359239608338 0.6798834821355847 C 1.0600938041012375 0.686438832514313 1.0872516842416413 0.6939306615185481 1.114409564382012 0.7032954477738627 C 1.3712634554897816 0.7873015136178947 1.5839691696885154 0.9703430394655883 1.705327577092167 1.2118033414372664 C 1.8279568678630624 1.452633997427354 1.8491996861163813 1.7324996982255505 1.7643257305006235 1.9890806006281052 C 1.6803196646565748 2.245934491735875 1.4972781388088812 2.4586402059345756 1.255817836837203 2.579998613338227 C 1.0146673162837572 2.702680750557485 0.7344937568722253 2.7239213453143227 0.4776040990208576 2.6389967667467 C 0.313830043595775 2.5845971156916474 0.16634702470315993 2.489924610114319 0.048696888527635415 2.363672050840553 C -0.0706679059887925 2.9890098823888405 0.018833061563570085 3.636246658769388 0.3034190746720906 4.2057255072602455 Z" fill="#3361e1" transform="matrix(1,0,0,1,0,0)" fill-rule="evenodd"></path></g><g clip-path="url(#SvgjsClipPath100193af6264-b164-4355-a9a5-293120c95fdd)"><path d=" M 4.784469297838483 2.3814651447256256 L 4.784469297838483 2.3814651447256256 C 4.973640781523255 2.4438704828638915 5.179876680510997 2.428369091763503 5.357594216663532 2.3383871279511954 C 5.533488745474205 2.2509533575611522 5.668008969908053 2.097936602267646 5.732185666875947 1.9122893533345098 L 5.73218566687598 1.9029245670792119 C 5.7945910050142455 1.7137530833944403 5.779089613913873 1.5075171844066977 5.689107650101549 1.329799648254163 C 5.601454371163904 1.1537202727322826 5.448071787257566 1.0191741464986595 5.262073396859374 0.9552081980417152 L 5.252708610604076 0.9552081980417152 C 5.063537126919305 0.8928028599034493 4.857301227931595 0.908304251003838 4.67958369177906 0.9982862148161619 C 4.501823081759744 1.0879066639187709 4.367040794341731 1.2445910730421934 4.304992241566546 1.433748775688129 C 4.24232609088811 1.6232032779017098 4.257831504999899 1.829829774652538 4.348070258341009 2.0078101731387012 C 4.438103266944607 2.18540457601195 4.595129021395383 2.3198536661962295 4.784469297838483 2.3814651447256256 Z" fill="#000000" transform="matrix(1,0,0,1,0,0)" fill-rule="evenodd"></path></g><g clip-path="url(#SvgjsClipPath100193af6264-b164-4355-a9a5-293120c95fdd)"><path d=" M 0.5600142180676252 2.3824016233511487 L 0.5600142180676252 2.3824016233511487 C 0.7491857017523637 2.4448069614894314 0.9554216007401063 2.4293055703890425 1.1331391368926411 2.3393236065767353 C 1.3088492088460513 2.2521095309528305 1.4433435988598458 2.0994583982871573 1.5077305871051219 1.9141623105856058 L 1.5077305871051219 1.9038610457047516 C 1.5701359252433877 1.71468956201998 1.5546345341430157 1.508453663032254 1.4646525703306916 1.330736126879719 C 1.377218799940665 1.1548415980690292 1.2242020446471256 1.020321373635182 1.038554795714006 0.9561446766672714 L 1.029190009458708 0.9561446766672714 C 0.8401417706328623 0.8934497056187966 0.6339098465052511 0.9086138176870047 0.4560650906336591 0.9982862148161784 C 0.2781157118256673 1.0881243012195527 0.1433068444960404 1.2451766316585935 0.08147364042121134 1.4346852543136688 C 0.01877866937275297 1.623733493139498 0.03394278144094459 1.8299654172670927 0.12361517857011833 2.0078101731387012 C 0.21345326497350914 2.185759551946693 0.37050559541258304 2.320568419276353 0.5600142180676252 2.3824016233511487 Z" fill="#3361e1" transform="matrix(1,0,0,1,0,0)" fill-rule="evenodd"></path></g><g clip-path="url(#SvgjsClipPath100193af6264-b164-4355-a9a5-293120c95fdd)"><path d=" M 2.672709997265816 5.851118452318416 L 2.678328869019021 5.851118452318416 C 2.8675003527037592 5.913523790456682 3.073736251691502 5.898022399356293 3.251453787844004 5.808040435543969 C 3.427348316654743 5.720606665153943 3.561868541088591 5.567589909860453 3.6260452380564847 5.381942660927317 L 3.6260452380564847 5.372577874672002 C 3.6884505761947834 5.183406390987231 3.6729491850944114 4.977170491999488 3.5829672212820873 4.799452955846953 C 3.495533450892061 4.62355842703628 3.3425166955985213 4.489038202602416 3.156869446665402 4.424861505634506 L 3.147504660410104 4.424861505634506 C 2.958456421584258 4.362166534586031 2.752224497456647 4.377330646654255 2.5743797415850547 4.467003043783429 C 2.3966191315658048 4.556623492886022 2.261836844147792 4.713307902009444 2.1997882913726072 4.902465604655379 C 2.1368325558223598 5.091796648148661 2.1520006032844554 5.298419161354002 2.241929829521481 5.476527002105952 C 2.330459277239033 5.653349671586551 2.4853072473436373 5.788000080373169 2.672709997265849 5.851118452318416 Z" fill="#51a8db" transform="matrix(1,0,0,1,0,0)" fill-rule="evenodd"></path></g></g><g><path d=" M -2.4701522727255782 2.9452252772953655 A 5.381664319501823 5.381664319501823 0 0 1 8.293176366278068 2.9452252772953655 A 5.381664319501823 5.381664319501823 0 0 1 -2.470152272725578 2.9452252772953655 Z M -2.4201522727255784 2.9452252772953647 A 5.331664319501822 5.331664319501822 0 0 0 8.243176366278066 2.9452252772953647 A 5.331664319501822 5.331664319501822 0 0 0 -2.420152272725579 2.9452252772953647 Z" fill="#000000" fill-rule="nonzero"></path></g><g transform="matrix(-0.2742904828097411,-0.9616468847971167,0.9616468847971167,-0.2742904828097411,-4.998806864569186,3.754710132734979)"><g clip-path="url(#SvgjsClipPath1006)"><path d=" M -1.2475244915791355 3.797625375757735 L -1.1197674587302355 3.925540635229735 C -1.0952359885852354 3.949912610038735 -1.0700683495432355 3.9500721053747347 -1.0458540576232354 3.925859625901735 L -0.9174603121432355 3.797465880421735 C -0.8932478326702356 3.773253400948735 -0.8934073280062356 3.748083949459735 -0.9177793028152356 3.723552479314735 L -1.0455350669512355 3.595795808955235 C -1.0700683495432355 3.571263976320835 -1.0952359885852354 3.571104843474235 -1.1194502805052355 3.595477180772635 L -1.2480022526083354 3.7238714699867352 C -1.2722154570601354 3.748083949459735 -1.2720561429688355 3.773253400948735 -1.2475244915791355 3.797625375757735 Z" fill="#000000" transform="matrix(1,0,0,1,0,0)" fill-rule="nonzero"></path></g></g><g transform="matrix(0.2742904828097411,-0.9616468847971167,-0.9616468847971167,-0.2742904828097411,8.630708495753122,11.43666128379721)"><g clip-path="url(#SvgjsClipPath1007)"><path d=" M 6.740803940101824 3.797625375757735 L 6.868560972950724 3.925540635229735 C 6.893092443095724 3.949912610038735 6.918260082137723 3.9500721053747347 6.942474374057723 3.925859625901735 L 7.070868119537724 3.797465880421735 C 7.095080599010723 3.773253400948735 7.094921103674723 3.748083949459735 7.070549128865723 3.723552479314735 L 6.942793364729724 3.595795808955235 C 6.918260082137723 3.571263976320835 6.893092443095724 3.571104843474235 6.868878151175724 3.595477180772635 L 6.740326179072624 3.7238714699867352 C 6.716112974620824 3.748083949459735 6.716272288712124 3.773253400948735 6.740803940101824 3.797625375757735 Z" fill="#000000" transform="matrix(1,0,0,1,0,0)" fill-rule="nonzero"></path></g></g></g><defs><clipPath id="SvgjsClipPath1005"><path d=" M 0 0 h 5.8230240935524895 v 5.890450554590731 h -5.8230240935524895 Z"></path></clipPath><clipPath id="SvgjsClipPath100193af6264-b164-4355-a9a5-293120c95fdd"><path d=" M -5.171884337287204e-16 0 L 5.823024093552489 0 L 5.823024093552489 5.890450554590731 L -1.0343768674574408e-15 5.890450554590731 Z"></path></clipPath><clipPath id="SvgjsClipPath1006"><path d=" M -1.3363947490642354 3.500732057581735 h 0.5074851599999998 v 0.5256096299999998 h -0.5074851599999998 Z"></path></clipPath><clipPath id="SvgjsClipPath1007"><path d=" M 6.651933682616724 3.500732057581735 h 0.5074851599999998 v 0.5256096299999998 h -0.5074851599999998 Z"></path></clipPath></defs></svg>